# xmcd
#
# Track frame offsets: 
#        150
#        9207
#        30220
#        55461
#        78303
#        99301
#        118827
#        137269
#        157145
#        172481
#        193463
#        209504
#
# Disc length: 3124 seconds
#
# Revision: 0
# Processed by: cddbd v1.5.2PL0 Copyright (c) Steve Scherf et al.
# Submitted via: ExactAudioCopy v0.99pb5
#
DISCID=a30c320c
DTITLE=HI State Artists - Far Swim To HNL
DYEAR=2010
DGENRE=Hip-Hop
TTITLE0=1. Blue
TTITLE1=2. Thinline (feat. Jesse Fame)
TTITLE2=3. NuMb3r$ (feat. Ija and Jasonix)
TTITLE3=4. Pad the Wallz (feat. ILL Libra)
TTITLE4=5. ON* (feat. Ija)
TTITLE5=6. They tell me (feat. Evelyn Aako)
TTITLE6=7. Games (feat. Cix, Jesse Fame, Kilawatts, Kavet the Catalyst
TTITLE6=and DJ Sssolution)
TTITLE7=8. Hey World
TTITLE8=9. Sand Castles
TTITLE9=10. Dark Waters (feat. Ija, Fungi and Nippondamic)
TTITLE10=11. Roll (feat. Neila)
TTITLE11=12. Spirits (feat. Kaliq Rashad and Rachel Ferguson)
EXTD=
EXTT0=
EXTT1=
EXTT2=
EXTT3=
EXTT4=
EXTT5=
EXTT6=
EXTT7=
EXTT8=
EXTT9=
EXTT10=
EXTT11=
PLAYORDER=
